<svg width="40" height="35" viewBox="0 0 40 35" fill="none" xmlns="http://www.w3.org/2000/svg">
<path d="M0 34.8348V3.48348C0 2.52553 0.392 1.70575 1.176 1.02414C1.96 0.342543 2.90133 0.00116116 4 0H36C37.1 0 38.042 0.341382 38.826 1.02414C39.61 1.70691 40.0013 2.52669 40 3.48348V24.3844C40 25.3423 39.6087 26.1627 38.826 26.8455C38.0433 27.5282 37.1013 27.869 36 27.8679H8L0 34.8348ZM8 20.9009H24V17.4174H8V20.9009ZM8 15.6757H32V12.1922H8V15.6757ZM8 10.4505H32V6.96697H8V10.4505Z" fill="#FB6D6D"/>
</svg>
