<svg width="46" height="41" viewBox="0 0 46 41" fill="none" xmlns="http://www.w3.org/2000/svg">
<mask id="mask0_1370_655" style="mask-type:luminance" maskUnits="userSpaceOnUse" x="30" y="13" width="16" height="14">
<path d="M30 13H46V26.9339H30V13Z" fill="white"/>
<path fill-rule="evenodd" clip-rule="evenodd" d="M33.7836 18.8115C34.1245 19.9648 34.8421 21.1427 35.6605 21.855C36.799 22.847 37.8661 23.2039 38.7202 23.2323C39.5676 23.2602 40.3307 22.9697 40.9024 22.4702C41.1282 22.2735 41.2937 21.9681 41.3657 21.5511C41.4371 21.1385 41.4101 20.654 41.295 20.1411C40.8648 18.222 38.8057 16.6785 36.2384 16.134C35.0624 15.8848 34.3522 15.9706 34.0033 16.276C33.7941 16.4583 33.6359 16.775 33.5904 17.2396C33.5454 17.6952 33.615 18.2386 33.7836 18.8115ZM32.2722 17.1914C32.3282 16.6233 32.5325 16.0606 33.0082 15.6453C33.935 14.836 35.4193 14.9282 36.6279 15.1844C39.6045 15.8152 42.0747 17.6191 42.5984 19.9551C42.7276 20.5339 42.7688 21.1197 42.6765 21.654C42.5842 22.1846 42.3547 22.7017 41.8981 23.101C41.4722 23.4747 40.9616 23.7671 40.3987 23.9594C39.8359 24.1517 39.2332 24.2397 38.6291 24.2179C37.3091 24.1739 35.9374 23.6305 34.6476 22.5077C33.6587 21.646 32.8667 20.311 32.4937 19.0468C32.3048 18.4106 32.2156 17.7686 32.2722 17.1914Z" fill="black"/>
<path fill-rule="evenodd" clip-rule="evenodd" d="M38.7363 18.0697C39.0963 18.1158 39.3381 18.3699 39.2766 18.6378L38.9861 19.8935L40.3911 21.2944L41.3357 22.3919L42.5751 24.0104C42.756 24.2468 42.6452 24.5474 42.3277 24.6819C42.0101 24.8164 41.6058 24.7339 41.4255 24.4981L40.2027 22.9011L39.4501 22.0275L37.1351 21.7612C36.7738 21.7194 36.5258 21.468 36.5824 21.1995C36.6378 20.9305 36.9763 20.7467 37.3375 20.7879L38.3486 20.9042L37.7837 20.3415L35.388 18.5526C35.1295 18.3602 35.1307 18.0488 35.3898 17.8564C35.5225 17.7636 35.6876 17.7131 35.8578 17.7134C36.028 17.7137 36.193 17.7647 36.3252 17.8581L37.8507 18.9964L37.972 18.4711C38.0335 18.2032 38.3763 18.0237 38.7363 18.0692" fill="black"/>
</mask>
<g mask="url(#mask0_1370_655)">
<path d="M38 26.9339C42.4183 26.9339 46 23.8147 46 19.967C46 16.1192 42.4183 13 38 13C33.5817 13 30 16.1192 30 19.967C30 23.8147 33.5817 26.9339 38 26.9339Z" fill="#FB6D6D"/>
</g>
<path d="M24.37 6.21976L25.755 1.74174L20 7.95541H23.131L21.38 12.0124L27.713 6.21976H24.37ZM24 13.9339C19.5815 13.9339 16 10.8149 16 6.96697C16 3.11902 19.5815 0 24 0C28.4185 0 32 3.11902 32 6.96697C32 10.8149 28.4185 13.9339 24 13.9339Z" fill="#FB6D6D"/>
<mask id="mask1_1370_655" style="mask-type:luminance" maskUnits="userSpaceOnUse" x="15" y="26" width="16" height="15">
<path d="M15 26.7207H31V40.6546H15V26.7207Z" fill="white"/>
<path fill-rule="evenodd" clip-rule="evenodd" d="M17.4615 34.2236C16.8953 34.2236 16.6295 33.6142 17.0528 33.2873L22.5913 28.9999C22.7039 28.9128 22.8493 28.8647 22.9999 28.8647C23.1505 28.8647 23.2959 28.9128 23.4085 28.9999L28.947 33.2873C29.3704 33.6142 29.1039 34.2236 28.5384 34.2236H27.923V37.975C27.923 38.1171 27.8582 38.2535 27.7428 38.354C27.6273 38.4545 27.4708 38.5109 27.3076 38.5109H18.6922C18.529 38.5109 18.3725 38.4545 18.2571 38.354C18.1417 38.2535 18.0768 38.1171 18.0768 37.975V34.2236H17.4615ZM21.1538 37.4391V34.7595C21.1538 34.6173 21.2186 34.481 21.334 34.3805C21.4494 34.28 21.6059 34.2236 21.7691 34.2236H24.2307C24.3939 34.2236 24.5504 34.28 24.6658 34.3805C24.7812 34.481 24.8461 34.6173 24.8461 34.7595V37.4391H26.6922V33.6876C26.6922 33.5923 26.7214 33.4987 26.7768 33.4164C26.8322 33.3342 26.9117 33.2663 27.0073 33.2198L22.9999 30.1168L18.9925 33.2198C19.0881 33.2663 19.1677 33.3342 19.2231 33.4164C19.2784 33.4987 19.3076 33.5923 19.3076 33.6876V37.4391H21.1538ZM22.3845 37.4391V35.2954H23.6153V37.4391H22.3845Z" fill="black"/>
</mask>
<g mask="url(#mask1_1370_655)">
<path d="M23 40.6546C27.4183 40.6546 31 37.5354 31 33.6877C31 29.8399 27.4183 26.7207 23 26.7207C18.5817 26.7207 15 29.8399 15 33.6877C15 37.5354 18.5817 40.6546 23 40.6546Z" fill="#FB6D6D"/>
</g>
<path d="M8 11C3.6 11 0 14.6 0 19C0 23.4 3.6 27 8 27C12.4 27 16 23.4 16 19C16 14.6 12.4 11 8 11ZM8 24.6C5.792 24.6 4 22.808 4 20.6C4 17.936 8 13.432 8 13.432C8 13.432 12 17.936 12 20.6C12 22.808 10.208 24.6 8 24.6Z" fill="#FB6D6D"/>
</svg>
