<svg width="44" height="28" viewBox="0 0 44 28" fill="none" xmlns="http://www.w3.org/2000/svg">
<path d="M0 27.8679V22.991C0 22.004 0.292 21.0972 0.876 20.2704C1.46 19.4437 2.23467 18.812 3.2 18.3754C5.26667 17.4755 7.36667 16.8009 9.5 16.3515C11.6333 15.9021 13.8 15.6769 16 15.6757C18.2 15.6746 20.3667 15.8998 22.5 16.3515C24.6333 16.8032 26.7333 17.4778 28.8 18.3754C29.7667 18.8109 30.542 19.4425 31.126 20.2704C31.71 21.0983 32.0013 22.0052 32 22.991V27.8679H0ZM36 27.8679V22.6427C36 21.3654 35.592 20.1386 34.776 18.9624C33.96 17.7861 32.8013 16.7777 31.3 15.937C33 16.1112 34.6 16.409 36.1 16.8305C37.6 17.252 39 17.767 40.3 18.3754C41.5 18.956 42.4167 19.6016 43.05 20.3122C43.6833 21.0229 44 21.7997 44 22.6427V27.8679H36ZM16 13.934C13.8 13.934 11.9167 13.2518 10.35 11.8874C8.78333 10.5231 8 8.88293 8 6.96701C8 5.0511 8.78333 3.41096 10.35 2.04659C11.9167 0.682227 13.8 4.46594e-05 16 4.46594e-05C18.2 4.46594e-05 20.0833 0.682227 21.65 2.04659C23.2167 3.41096 24 5.0511 24 6.96701C24 8.88293 23.2167 10.5231 21.65 11.8874C20.0833 13.2518 18.2 13.934 16 13.934ZM36 6.96701C36 8.88293 35.2167 10.5231 33.65 11.8874C32.0833 13.2518 30.2 13.934 28 13.934C27.6333 13.934 27.1667 13.898 26.6 13.826C26.0333 13.754 25.5667 13.6739 25.2 13.5856C26.1 12.6567 26.792 11.6262 27.276 10.494C27.76 9.36191 28.0013 8.18623 28 6.96701C27.9987 5.74779 27.7573 4.57212 27.276 3.43998C26.7947 2.30785 26.1027 1.27732 25.2 0.348393C25.6667 0.203248 26.1333 0.108614 26.6 0.0644894C27.0667 0.0203653 27.5333 -0.0011165 28 4.46594e-05C30.2 4.46594e-05 32.0833 0.682227 33.65 2.04659C35.2167 3.41096 36 5.0511 36 6.96701Z" fill="#FB6D6D"/>
</svg>
