<svg width="42" height="36" viewBox="0 0 42 36" fill="none" xmlns="http://www.w3.org/2000/svg">
<path d="M4.50016 6.74076V32.2863H37.5002V35.4795H4.50016C3.5277 35.4795 2.59507 35.1431 1.90744 34.5442C1.2198 33.9454 0.833496 33.1332 0.833496 32.2863V6.74076H4.50016ZM28.3335 11.5305H38.4168L28.3335 2.74926V11.5305ZM11.8335 0.35437H30.1668L41.1668 9.93395V25.8999C41.1668 26.7468 40.7805 27.559 40.0929 28.1578C39.4053 28.7567 38.4726 29.0931 37.5002 29.0931H11.8335C10.861 29.0931 9.9284 28.7567 9.24077 28.1578C8.55314 27.559 8.16683 26.7468 8.16683 25.8999V3.54756C8.16683 2.70068 8.55314 1.88847 9.24077 1.28963C9.9284 0.690795 10.861 0.35437 11.8335 0.35437ZM11.8335 3.54756V25.8999H37.5002V14.7237H24.6668V3.54756H11.8335Z" fill="#FB6D6D"/>
</svg>
