<svg width="36" height="32" viewBox="0 0 36 32" fill="none" xmlns="http://www.w3.org/2000/svg">
<path fill-rule="evenodd" clip-rule="evenodd" d="M18 31.3514C20.3638 31.3514 22.7044 30.9459 24.8883 30.1581C27.0722 29.3703 29.0565 28.2157 30.7279 26.7601C32.3994 25.3044 33.7253 23.5764 34.6298 21.6745C35.5344 19.7726 36 17.7342 36 15.6757C36 13.6171 35.5344 11.5787 34.6298 9.67685C33.7253 7.77499 32.3994 6.04692 30.7279 4.5913C29.0565 3.13568 27.0722 1.98102 24.8883 1.19324C22.7044 0.405463 20.3638 -3.06749e-08 18 0C13.2261 6.19508e-08 8.64773 1.65154 5.27208 4.5913C1.89642 7.53106 0 11.5182 0 15.6757C0 19.8331 1.89642 23.8203 5.27208 26.7601C8.64773 29.6998 13.2261 31.3514 18 31.3514ZM17.536 22.0156L27.536 11.5652L24.464 9.33574L15.864 18.3214L11.414 14.4443L8.586 16.9071L14.586 22.1323L16.134 23.4804L17.536 22.0156Z" fill="#FB6D6D"/>
</svg>
